HIERARCHY
ROOT hip
{
	OFFSET 0.000000 0.000000 0.000000 
	CHANNELS 6 Xposition Yposition Zposition Xrotation Zrotation Yrotation
	JOINT abdomen
	{
		OFFSET 0.000000 3.402643 0.000000 
		CHANNELS 3 Xrotation Zrotation Yrotation
		JOINT chest
		{
			OFFSET 0.000000 8.438565 -0.680529 
			CHANNELS 3 Xrotation Zrotation Yrotation
			JOINT neck
			{
				OFFSET 0.000000 10.207942 -0.272212 
				CHANNELS 3 Xrotation Zrotation Yrotation
				JOINT head
				{
					OFFSET 0.000000 3.130431 0.000000 
					CHANNELS 3 Xrotation Zrotation Yrotation
					End Site
					{
						OFFSET 0.000000 3.130435 0.000000 
					}
				}
			}
			JOINT lCollar
			{
				OFFSET 3.470700 6.669187 -0.816635 
				CHANNELS 3 Yrotation Zrotation Xrotation
				JOINT lShldr
				{
					OFFSET 3.198488 0.000000 0.000000 
					CHANNELS 3 Zrotation Yrotation Xrotation
					JOINT lForeArm
					{
						OFFSET 10.139888 0.000000 0.000000 
						CHANNELS 3 Yrotation Zrotation Xrotation
						JOINT lHand
						{
							OFFSET 8.370511 0.000000 0.000000 
							CHANNELS 3 Zrotation Yrotation Xrotation
							End Site
							{
								OFFSET 4.083176 0.000000 0.000000 
							}
						}
					}
				}
			}
			JOINT rCollar
			{
				OFFSET -3.470700 6.669187 -0.816635 
				CHANNELS 3 Yrotation Zrotation Xrotation
				JOINT rShldr
				{
					OFFSET -3.198488 0.000000 0.000000 
					CHANNELS 3 Zrotation Yrotation Xrotation
					JOINT rForeArm
					{
						OFFSET -10.139888 0.000000 0.000000 
						CHANNELS 3 Yrotation Zrotation Xrotation
						JOINT rHand
						{
							OFFSET -8.370511 0.000000 0.000000 
							CHANNELS 3 Zrotation Yrotation Xrotation
							End Site
							{
								OFFSET -4.083176 0.000000 0.000000 
							}
						}
					}
				}
			}
		}
	}
	JOINT lThigh
	{
		OFFSET 5.308129 -1.633274 1.361059 
		CHANNELS 3 Xrotation Zrotation Yrotation
		JOINT lShin
		{
			OFFSET -2.041588 -20.007561 0.000000 
			CHANNELS 3 Xrotation Zrotation Yrotation
			JOINT lFoot
			{
				OFFSET 0.000000 -19.190928 -1.224953 
				CHANNELS 3 Xrotation Yrotation Zrotation
				End Site
				{
					OFFSET 0.000000 -2.449906 4.627600 
				}
			}
		}
	}
	JOINT rThigh
	{
		OFFSET -5.308129 -1.633274 1.361059 
		CHANNELS 3 Xrotation Zrotation Yrotation
		JOINT rShin
		{
			OFFSET 2.041588 -20.007561 0.000000 
			CHANNELS 3 Xrotation Zrotation Yrotation
			JOINT rFoot
			{
				OFFSET 0.000000 -19.190928 -1.224953 
				CHANNELS 3 Xrotation Yrotation Zrotation
				End Site
				{
					OFFSET 0.000000 -2.449906 4.627600 
				}
			}
		}
	}
}
MOTION
Frames: 10
Frame Time: 0.033333
-0.360040 48.815430 0.013346 4.959613 0.164700 -7.216822 0.000000 0.000000 0.000000 -3.272397 2.297183 7.007650 40.472950 5.107403 0.157368 3.374691 -3.544213 -19.521528 -10.666606 20.532450 24.988749 -98.183830 -2.083584 -5.689289 -41.746365 -0.576535 23.437222 -0.295780 8.470672 47.187050 -13.741163 -17.033068 20.131666 72.318893 7.492273 72.487907 10.394395 -5.139285 -35.701687 9.141771 -1.064076 -10.389016 11.003256 6.903543 19.333672 56.855793 0.038543 -2.435311 16.377449 -5.400137 -21.339266 -5.651303 4.206546 2.547920 15.389237 2.721267 1.002531 -8.372274 -5.656598 21.594570 
-0.631209 48.753273 -0.043817 3.838718 -2.064428 -7.036161 0.000000 0.000000 0.000000 -1.520428 5.120307 7.648490 39.908916 4.277339 0.088374 3.589334 -3.108952 -20.119017 -9.056920 20.943895 24.992687 -97.829826 -1.703680 -5.917246 -42.896069 -2.045186 23.034653 1.593091 7.250090 47.560352 -12.673277 -17.515831 20.363192 72.464043 8.526454 72.348091 9.689566 -4.482701 -35.871479 9.337705 -1.128793 -10.516894 5.192202 11.647312 21.312042 65.512886 3.367294 -2.008930 17.614376 -6.086951 -21.563358 -0.595662 6.915932 3.213194 12.999686 2.049278 0.653017 -9.524488 -6.095444 22.687067 
-0.744191 48.736172 -0.181787 2.473920 -3.025009 -6.875206 0.000000 0.000000 0.000000 0.293756 6.818131 8.017108 39.824219 2.910156 0.000496 3.687862 -2.566475 -20.197081 -6.695251 20.788918 24.993046 -97.338600 -0.809032 -6.256775 -43.920303 -3.607654 21.178799 3.608495 6.011040 48.077229 -10.927627 -17.735437 20.891546 72.251732 9.645429 71.971260 8.667574 -3.293340 -36.417351 9.648345 -1.398077 -10.614688 -0.498473 13.720817 22.034256 70.671753 6.976350 -1.370629 14.511321 -5.284160 -21.058594 4.384723 8.212251 3.448127 10.394356 1.472839 0.347284 -10.122955 -5.955506 23.715828 
-0.731436 48.800282 -0.435443 1.666678 -3.102123 -6.943995 0.000000 0.000000 0.000000 1.477798 7.704599 8.200405 39.899593 1.347654 -0.117155 3.728622 -1.882340 -19.913605 -4.187372 20.255417 24.986887 -96.733223 0.777799 -6.709866 -44.825256 -5.444634 17.805384 4.863862 5.608938 48.642712 -9.050194 -18.138058 21.449696 72.278030 10.892137 71.718445 7.527257 -1.943716 -37.269936 9.742718 -1.725421 -10.722000 -6.503664 13.795370 21.777245 71.678345 9.464684 -0.880784 10.386441 -1.522088 -21.310127 7.957885 8.475475 3.484029 8.665920 1.092318 0.139398 -10.800641 -5.251062 23.635658 
-0.630296 48.911682 -0.762569 1.151310 -2.800431 -7.137525 0.000000 0.000000 0.000000 2.442222 8.089834 8.277549 39.726414 0.039062 -0.214844 3.783992 -1.407038 -19.664503 -2.160978 19.874834 24.994747 -96.448280 2.727920 -6.971394 -45.603443 -6.914577 14.344859 5.272011 6.108175 49.165432 -7.527055 -18.975660 21.836670 72.714554 12.136839 71.711693 6.779182 -0.964333 -38.357540 9.749599 -1.856675 -10.773171 -12.069790 12.713385 20.901760 68.870781 10.755070 -0.498395 7.025555 3.160033 -20.940275 10.613465 8.162870 3.340632 7.535702 0.946272 0.010083 -11.456934 -4.440631 23.299913 
-0.497356 49.025558 -1.119988 0.697195 -2.333474 -7.486954 0.000000 0.000000 0.000000 3.381046 8.051576 8.256838 39.369869 -0.937489 -0.283325 3.646873 -1.234547 -19.370028 -0.803016 19.767794 24.900925 -96.533379 4.691923 -7.004395 -45.970699 -7.425233 12.760814 4.560394 7.043312 49.304024 -6.429978 -19.979610 22.077684 73.504601 13.291775 71.920853 6.570487 -0.826172 -39.086723 9.693875 -1.922986 -10.799867 -16.313929 11.038633 19.876221 62.730846 11.166051 -0.226928 4.934755 4.972027 -19.507885 12.976834 7.665208 3.158172 6.568329 0.751177 -0.101086 -11.867047 -3.694702 22.898760 
-0.368323 49.083271 -1.514107 0.138984 -1.875780 -8.071005 0.000000 0.000000 0.000000 4.513848 7.802019 8.163037 38.898708 -1.953088 -0.352024 3.377524 -0.998246 -18.831116 0.178954 19.625704 24.539087 -96.616379 6.626743 -7.047996 -45.958485 -7.412938 12.811210 2.910911 8.808878 49.141281 -5.464648 -21.100424 22.300768 74.727966 14.551311 72.367180 6.543408 -1.529097 -39.306324 10.126891 -1.827558 -10.712990 -18.953457 9.324454 18.976398 53.629253 10.239549 -0.055839 4.414918 2.664624 -18.013697 15.409883 7.275308 3.035787 5.872764 0.477710 -0.229155 -12.283716 -2.998914 21.893511 
-0.290713 49.048611 -1.918998 0.095322 -1.891877 -8.735345 0.000000 0.000000 0.000000 5.115183 7.908352 8.164381 38.624428 -2.851486 -0.420860 3.178898 -0.574682 -18.350611 0.725984 19.272945 24.338278 -96.536255 8.401540 -7.189836 -45.658436 -7.334120 13.005403 1.511990 10.669683 48.923828 -4.741988 -21.937134 22.486633 75.959488 15.530797 72.870316 6.459571 -2.743352 -38.754917 10.350872 -1.585956 -10.705779 -20.798147 8.445198 18.450666 43.651157 7.527543 -0.183589 5.171419 0.162098 -17.330481 17.392391 7.363482 3.018003 5.458467 0.253616 -0.292451 -13.270182 -2.156937 21.364311 
-0.274865 48.950043 -2.256590 0.514692 -2.484799 -9.530653 0.000000 0.000000 0.000000 5.059404 8.524073 8.316476 38.778435 -3.544808 -0.459918 3.081871 -0.287905 -18.008068 1.071363 18.564852 24.239601 -96.239929 10.073335 -7.498080 -45.243210 -7.274978 12.944322 0.713777 12.041998 48.822460 -4.103523 -22.300093 22.707111 76.803665 16.100004 73.225525 6.480824 -3.805364 -38.096462 10.333341 -1.422383 -10.736272 -21.667948 8.592315 18.392082 34.304115 3.322562 -0.622721 6.655640 0.018114 -18.609838 18.998964 8.005784 3.226929 5.273698 0.039460 -0.423103 -14.367919 -1.130567 21.560448 
-0.267082 48.798756 -2.461974 1.312090 -3.264052 -10.574348 0.000000 0.000000 0.000000 4.317023 9.398171 8.554641 39.286400 -4.238108 -0.519050 2.895839 -0.232791 -17.539232 1.484222 17.661428 24.118673 -95.984909 11.705570 -7.784465 -44.877296 -7.049759 12.275665 0.453433 12.880237 48.854858 -3.538948 -22.420858 22.921862 77.405464 16.193272 73.563667 6.408644 -4.811798 -37.099468 10.453382 -1.097353 -10.736000 -21.595217 8.861509 18.486372 26.257717 -0.567891 -1.057183 6.941793 1.666697 -20.594473 20.288853 8.846103 3.483601 5.445127 -0.253967 -0.454499 -15.572457 -0.153692 22.144276 
